<svg xmlns="http://www.w3.org/2000/svg" viewBox="0 0 250.55 46.05"><defs><style>.cls-1{fill:#fff;}.cls-2,.cls-3{fill:#e2001a;}.cls-3,.cls-4,.cls-6{fill-rule:evenodd;}.cls-4{fill:none;stroke:#e2001a;stroke-linecap:round;stroke-linejoin:round;stroke-width:2.83px;}.cls-5,.cls-6{fill:#1a171b;}</style></defs><title>Ресурс 1</title><g id="Слой_2" data-name="Слой 2"><g id="Рабочий_стол" data-name="Рабочий стол"><polygon class="cls-1" points="7.81 9.35 3.16 11.43 1.26 16.94 1.26 38.55 3.36 43.9 8.5 45.57 242.63 45.57 247.77 43.9 249.87 38.55 249.87 16.94 247.97 11.43 243.32 9.35 163.59 9.35 147.22 0.15 130.84 9.35 7.81 9.35 7.81 9.35"/><path class="cls-2" d="M119.34,12.21H8a5.26,5.26,0,0,0-2,.37,4.58,4.58,0,0,0-1.58,1.08,5.16,5.16,0,0,0-1.09,1.77,6.71,6.71,0,0,0-.39,2.29V37.6a5.34,5.34,0,0,0,.42,2.09,5.61,5.61,0,0,0,3.1,3,6,6,0,0,0,2.23.42H241.86a6.07,6.07,0,0,0,2.24-.42A5.87,5.87,0,0,0,246,41.47a5.44,5.44,0,0,0,1.22-1.78,5.34,5.34,0,0,0,.42-2.09V17.72a6.47,6.47,0,0,0-.39-2.29,5.16,5.16,0,0,0-1.09-1.77,4.54,4.54,0,0,0-1.57-1.08,5.29,5.29,0,0,0-2-.37H175.32c-2.36,0-2.41-2.94,0-2.94h67.24a8.11,8.11,0,0,1,3.12.6,7.56,7.56,0,0,1,2.59,1.77A8.27,8.27,0,0,1,250,14.41a9.48,9.48,0,0,1,.58,3.31V37.6a8.23,8.23,0,0,1-.66,3.24A8.33,8.33,0,0,1,248,43.57a8.77,8.77,0,0,1-2.82,1.84,9,9,0,0,1-3.33.64H8.69a9,9,0,0,1-3.32-.64,8.7,8.7,0,0,1-2.83-1.84A8.33,8.33,0,0,1,.66,40.84,8.41,8.41,0,0,1,0,37.6V17.72a9.48,9.48,0,0,1,.59-3.31A8.12,8.12,0,0,1,2.3,11.64,7.42,7.42,0,0,1,4.88,9.87,8.19,8.19,0,0,1,8,9.27H119.33a1.48,1.48,0,1,1,0,2.94Z"/><path class="cls-3" d="M138.53,19.16h6.55a1.39,1.39,0,0,1,1.36,1.39V27a1.38,1.38,0,0,1-1.36,1.39h-6.55A1.37,1.37,0,0,1,137.17,27V20.55a1.38,1.38,0,0,1,1.36-1.39Z"/><path class="cls-3" d="M156.06,19.16h-6.54a1.38,1.38,0,0,0-1.36,1.39V27a1.37,1.37,0,0,0,1.36,1.39h6.54A1.37,1.37,0,0,0,157.42,27V20.55a1.38,1.38,0,0,0-1.36-1.39Z"/><path class="cls-3" d="M138.53,30.15h6.55a1.38,1.38,0,0,1,1.36,1.39V38a1.38,1.38,0,0,1-1.36,1.39h-6.55A1.37,1.37,0,0,1,137.17,38V31.54a1.37,1.37,0,0,1,1.36-1.39Z"/><path class="cls-3" d="M156.06,30.15h-6.54a1.37,1.37,0,0,0-1.36,1.39V38a1.37,1.37,0,0,0,1.36,1.39h6.54A1.37,1.37,0,0,0,157.42,38V31.54a1.37,1.37,0,0,0-1.36-1.39Z"/><polyline class="cls-4" points="121.79 16.15 147.3 1.42 172.81 16.15"/><polyline class="cls-4" points="131.09 17.5 147.3 8.13 163.51 17.49"/><path class="cls-5" d="M13.07,37.06a2.26,2.26,0,0,0,.26,1.1,1.88,1.88,0,0,0,.62.66,2.62,2.62,0,0,0,.78.32,3.21,3.21,0,0,0,.71.09,3.61,3.61,0,0,0,.74-.09,3,3,0,0,0,.82-.32,2,2,0,0,0,.67-.66,2.16,2.16,0,0,0,.28-1.1V26.68a5.42,5.42,0,0,1,.19-1.6,2.34,2.34,0,0,1,.52-.94,2.11,2.11,0,0,1,.72-.48,4.87,4.87,0,0,1,.83-.23c.27,0,.54-.1.79-.16a1.78,1.78,0,0,0,.69-.29,1.56,1.56,0,0,0,.49-.62,3.33,3.33,0,0,0,.18-1.13A2.62,2.62,0,0,0,22.08,20a1.76,1.76,0,0,0-.76-.72,2.81,2.81,0,0,0-1.17-.23H10.87a2.56,2.56,0,0,0-.62.08,2.33,2.33,0,0,0-.73.32,1.68,1.68,0,0,0-.6.66,2.25,2.25,0,0,0-.26,1.11,3.33,3.33,0,0,0,.18,1.13,1.48,1.48,0,0,0,.49.62,1.78,1.78,0,0,0,.69.29c.25.06.52.12.79.16a4.87,4.87,0,0,1,.83.23,2,2,0,0,1,.72.48,2.34,2.34,0,0,1,.52.94,5.78,5.78,0,0,1,.19,1.6V37.06Zm21.62,0a1.9,1.9,0,0,0-.48-1.36,2,2,0,0,0-1.45-.51c-.3,0-.63,0-1,0a8.55,8.55,0,0,1-1.11-.12,3.54,3.54,0,0,1-1-.35,1.9,1.9,0,0,1-.77-.69,2.11,2.11,0,0,1-.3-1.18,1.79,1.79,0,0,1,.31-1.11,1.72,1.72,0,0,1,.79-.58,5,5,0,0,1,1.08-.26l1.18-.13A6.53,6.53,0,0,0,33,30.54a1.72,1.72,0,0,0,.79-.54,1.59,1.59,0,0,0,.31-1,1.88,1.88,0,0,0-.3-1.15,1.56,1.56,0,0,0-.78-.55A4.26,4.26,0,0,0,32,27.08L30.79,27a4.26,4.26,0,0,1-1.06-.18,1.43,1.43,0,0,1-.78-.53,1.79,1.79,0,0,1-.3-1.13,1.18,1.18,0,0,1,0-.3,1.86,1.86,0,0,1,.1-.31,1.08,1.08,0,0,1,.13-.24,2,2,0,0,1,.88-.71A4,4,0,0,1,31,23.35l1.23-.09a5.07,5.07,0,0,0,1.1-.14,2.38,2.38,0,0,0,.83-.38,1.25,1.25,0,0,0,.44-.66A3.89,3.89,0,0,0,34.69,21a2.08,2.08,0,0,0-.18-.94,1.44,1.44,0,0,0-.63-.69,2.5,2.5,0,0,0-1.23-.26h-6l-.44,0a4.8,4.8,0,0,0-.79.16,3.09,3.09,0,0,0-.9.43,2.28,2.28,0,0,0-.72.81,2.92,2.92,0,0,0-.3,1.34V37a1.75,1.75,0,0,0,.28,1,2,2,0,0,0,.73.63,4.47,4.47,0,0,0,1,.37,11,11,0,0,0,1.17.17c.4,0,.78,0,1.15,0h2.77c.6,0,1.17,0,1.69-.06a7.51,7.51,0,0,0,1.3-.21,1.49,1.49,0,0,0,.78-.48,1.77,1.77,0,0,0,.3-.69,4.47,4.47,0,0,0,0-.72Zm19.17,0v-16a2.16,2.16,0,0,0-1-1.8,2,2,0,0,0-1-.29H38.5a1.61,1.61,0,0,0-.56.12,2.78,2.78,0,0,0-.63.34,2,2,0,0,0-.5.51,1.18,1.18,0,0,0-.21.67V37.56a1.2,1.2,0,0,0,.19.7,1.35,1.35,0,0,0,.48.47,2.32,2.32,0,0,0,.62.29,4.38,4.38,0,0,0,.64.14,3.2,3.2,0,0,0,.49,0,3.67,3.67,0,0,0,.74-.08,2.68,2.68,0,0,0,.83-.3,2,2,0,0,0,.7-.63,2.05,2.05,0,0,0,.29-1.08V25.66a1.92,1.92,0,0,1,.3-1.12,2,2,0,0,1,.73-.68,4,4,0,0,1,1-.36,5.49,5.49,0,0,1,.92-.13,5.57,5.57,0,0,1,.67,0,8.88,8.88,0,0,1,1.52.1,2.87,2.87,0,0,1,1.18.44,2.12,2.12,0,0,1,.76,1,4.89,4.89,0,0,1,.27,1.79V37.56a1.2,1.2,0,0,0,.19.7,1.35,1.35,0,0,0,.48.47,2.24,2.24,0,0,0,.63.29,4,4,0,0,0,.63.14,3.2,3.2,0,0,0,.49,0,3.51,3.51,0,0,0,.73-.08,2.65,2.65,0,0,0,.84-.3,1.85,1.85,0,0,0,.7-.63,2.05,2.05,0,0,0,.29-1.08Zm19.41,0V21.49A3.43,3.43,0,0,0,73,20.05a1.43,1.43,0,0,0-.82-.76,4,4,0,0,0-1.53-.23H61.26a2.55,2.55,0,0,0-2,.68,2.89,2.89,0,0,0-.61,2.06v8.71a7.43,7.43,0,0,1-.22,1.87,3.5,3.5,0,0,1-1.38,2,9,9,0,0,1-.86.52,6.86,6.86,0,0,0-.8.51,2,2,0,0,0-.57.7,2.56,2.56,0,0,0-.23,1.12A2.49,2.49,0,0,0,55,38.53a1.85,1.85,0,0,0,.9.73,3.66,3.66,0,0,0,1.32.22,5.48,5.48,0,0,0,1.69-.28,7.16,7.16,0,0,0,1.73-.86,7.06,7.06,0,0,0,1.54-1.41,6.73,6.73,0,0,0,1.1-2,7.28,7.28,0,0,0,.42-2.5V25.94a2.54,2.54,0,0,1,.61-1.78,2.18,2.18,0,0,1,1.65-.64,2.64,2.64,0,0,1,1.22.27,2,2,0,0,1,.84.83A2.86,2.86,0,0,1,68.29,26V37.08a2,2,0,0,0,.24,1,1.9,1.9,0,0,0,.6.66,2.65,2.65,0,0,0,.82.37,3.59,3.59,0,0,0,.84.11,3.27,3.27,0,0,0,.88-.11,2.3,2.3,0,0,0,.8-.35,1.75,1.75,0,0,0,.58-.65,2.19,2.19,0,0,0,.22-1Zm24.21,0v-16a2,2,0,0,0-.28-1.07,1.92,1.92,0,0,0-.67-.63,2.94,2.94,0,0,0-.82-.31,3.53,3.53,0,0,0-.74-.08,2.71,2.71,0,0,0-.67.1,3.3,3.3,0,0,0-.78.34,2.16,2.16,0,0,0-.65.59,1.61,1.61,0,0,0-.27.89V37.31a1.93,1.93,0,0,0,.27,1,1.66,1.66,0,0,0,.64.57,2.65,2.65,0,0,0,.78.26,4.59,4.59,0,0,0,.68.06,3.15,3.15,0,0,0,.85-.11,2.63,2.63,0,0,0,.81-.34,1.81,1.81,0,0,0,.61-.65,2.07,2.07,0,0,0,.24-1Zm-6.62-3.86a6,6,0,0,0-.74-3.08A4.69,4.69,0,0,0,88,28.32a7.89,7.89,0,0,0-3.23-.69c-.33,0-.7,0-1.1-.06a5.35,5.35,0,0,1-1.21-.26,3.22,3.22,0,0,1-1.1-.61,2.8,2.8,0,0,1-.81-1.12,5,5,0,0,1-.24-.87,7.72,7.72,0,0,1-.12-1c0-.33,0-.65-.07-.95s0-.57,0-.79a5.63,5.63,0,0,0-.31-1.71,1.85,1.85,0,0,0-.75-.94,2.38,2.38,0,0,0-1.23-.28,2.74,2.74,0,0,0-1.25.26,1.89,1.89,0,0,0-.82.81,3,3,0,0,0-.3,1.41v14.7a3,3,0,0,0,.35,1.57,2.19,2.19,0,0,0,1.1.91,6.74,6.74,0,0,0,1.92.41c.78.07,1.72.1,2.81.1h1.13c.46,0,1,0,1.56-.07a12.83,12.83,0,0,0,1.77-.26,8.67,8.67,0,0,0,1.76-.59,5.44,5.44,0,0,0,1.52-1,4.64,4.64,0,0,0,1.08-1.64,6.14,6.14,0,0,0,.41-2.35Zm-5.34.08a2.24,2.24,0,0,1-.26,1.12,1.93,1.93,0,0,1-.64.69,2.62,2.62,0,0,1-.81.35,3.12,3.12,0,0,1-.76.1A2.72,2.72,0,0,1,81.21,35a2.15,2.15,0,0,1-.67-1.68,2.64,2.64,0,0,1,.28-1.19,2.18,2.18,0,0,1,.84-.89,2.67,2.67,0,0,1,1.39-.34,2.39,2.39,0,0,1,1.06.23,2.46,2.46,0,0,1,.78.6,2.43,2.43,0,0,1,.47.78,2.2,2.2,0,0,1,.16.81Zm27.58-16.8a.81.81,0,0,0-.17-.54,1,1,0,0,0-.44-.28,2,2,0,0,0-.56-.08,2.12,2.12,0,0,0-.73.13c-.24.08-.5.18-.75.29a6.75,6.75,0,0,1-.83.29,3.08,3.08,0,0,1-.93.13,3.65,3.65,0,0,1-1-.13,6.51,6.51,0,0,1-.85-.29c-.26-.11-.5-.21-.74-.29a1.86,1.86,0,0,0-.68-.13,2.12,2.12,0,0,0-.57.08,1.11,1.11,0,0,0-.47.28.77.77,0,0,0-.19.54,1.46,1.46,0,0,0,.3.91,2.19,2.19,0,0,0,.75.62,5.2,5.2,0,0,0,1,.39,11.23,11.23,0,0,0,1.94.29l.53,0,.46,0c.24,0,.52-.06.85-.12a8.25,8.25,0,0,0,1-.25,5.59,5.59,0,0,0,1-.4,2.26,2.26,0,0,0,.75-.6,1.23,1.23,0,0,0,.3-.83Zm4.63,20.3V21.43a2.23,2.23,0,0,0-.31-1.19,2.06,2.06,0,0,0-.75-.72,3.28,3.28,0,0,0-.93-.37,4.63,4.63,0,0,0-.84-.09,8.23,8.23,0,0,0-1,.05,2.88,2.88,0,0,0-.91.26,2.12,2.12,0,0,0-.77.59c-.26.31-.51.63-.75,1s-.48.7-.71,1-.43.68-.61,1-.36.57-.49.8-.14.25-.3.54l-.57,1c-.24.39-.49.81-.77,1.23a14.14,14.14,0,0,1-.85,1.2,7,7,0,0,1-.85.91,1.29,1.29,0,0,1-.75.36.77.77,0,0,1-.57-.27,1.88,1.88,0,0,1-.36-.64,3.36,3.36,0,0,1-.18-.76,4.34,4.34,0,0,1-.06-.65V21.2a2.09,2.09,0,0,0-.32-1.19,1.9,1.9,0,0,0-.84-.72,3.07,3.07,0,0,0-1.21-.23,2.51,2.51,0,0,0-.63.1,3.29,3.29,0,0,0-.79.37,2.11,2.11,0,0,0-.66.67,1.94,1.94,0,0,0-.29,1.06V37a2.31,2.31,0,0,0,.26,1.09,2,2,0,0,0,.66.68,2.74,2.74,0,0,0,.86.33,4,4,0,0,0,.89.1l.92,0a3.26,3.26,0,0,0,.9-.16,1.62,1.62,0,0,0,.71-.46,23.12,23.12,0,0,0,1.75-2.32c.51-.78,1-1.57,1.46-2.36s.92-1.58,1.4-2.37a4.77,4.77,0,0,1,.25-.44c.11-.19.24-.39.39-.62a4.66,4.66,0,0,1,.49-.63,2.51,2.51,0,0,1,.56-.48,1.14,1.14,0,0,1,.62-.2.92.92,0,0,1,.62.2,1,1,0,0,1,.32.49,2.61,2.61,0,0,1,.13.63c0,.22,0,.42,0,.6v5.81a2.32,2.32,0,0,0,.61,1.71,2.5,2.5,0,0,0,1.81.63,3.71,3.71,0,0,0,.88-.1,2.1,2.1,0,0,0,.79-.36,1.79,1.79,0,0,0,.56-.72,2.75,2.75,0,0,0,.22-1.19Z"/><path class="cls-5" d="M195.43,36.87c0-.07,0-.2,0-.4v-.66c0-.25,0-.5-.05-.74a2.27,2.27,0,0,0-.12-.6,4,4,0,0,0-.62-1.1,10.79,10.79,0,0,0-.75-.85,4.79,4.79,0,0,1-.63-.83,2.1,2.1,0,0,1-.26-1V20.09a3,3,0,0,0-.32-1.41,2.33,2.33,0,0,0-.89-.95,2.62,2.62,0,0,0-1.38-.35h-9a2.23,2.23,0,0,0-1,.24,2.54,2.54,0,0,0-.82.63,2.75,2.75,0,0,0-.54.88,2.59,2.59,0,0,0-.19,1v7.17a6,6,0,0,1-.14,1.25,9.63,9.63,0,0,1-.3,1c-.11.31-.21.58-.3.8a3,3,0,0,1-.52.86,6.84,6.84,0,0,1-.75.78l-.8.73a6.7,6.7,0,0,0-.7.72,2.17,2.17,0,0,0-.42.75,7.68,7.68,0,0,0-.12.84c0,.33,0,.65,0,1s0,.61,0,.85,0,.41,0,.49c0,.24,0,.53,0,.9a8.93,8.93,0,0,0,0,1.14,3.81,3.81,0,0,0,.26,1.12,1.94,1.94,0,0,0,2.66,1,2.29,2.29,0,0,0,.62-.48,3.24,3.24,0,0,0,.39-.53,2.57,2.57,0,0,0,.19-.4q.07-.3.21-.69a6.68,6.68,0,0,1,.35-.78,2.6,2.6,0,0,1,.53-.65,1.26,1.26,0,0,1,.73-.3l.8,0,1,0,1.12,0,1,0,.79,0h1.38c.39,0,.78,0,1.2.07a7.22,7.22,0,0,1,1.19.19,3,3,0,0,1,1,.39,1.07,1.07,0,0,1,.48.67,9.65,9.65,0,0,0,.32,1.24,2.92,2.92,0,0,0,.45.9,1.77,1.77,0,0,0,.71.55,2.76,2.76,0,0,0,1.11.19,1.77,1.77,0,0,0,1.13-.36,2.22,2.22,0,0,0,.64-.93,5.26,5.26,0,0,0,.26-1.23,11.22,11.22,0,0,0,.05-1.28c0-.41,0-.78,0-1.08ZM188,27.48c0,.2,0,.49,0,.84s0,.75,0,1.19a8.57,8.57,0,0,1-.21,1.3,4.81,4.81,0,0,1-.46,1.2,2.5,2.5,0,0,1-.83.88,2.37,2.37,0,0,1-1.3.34,3.44,3.44,0,0,1-.84-.1,2.47,2.47,0,0,1-.76-.33,1.55,1.55,0,0,1-.55-.56,1.63,1.63,0,0,1-.22-.81,3.62,3.62,0,0,1,.15-.93c.09-.3.19-.64.28-1a6.16,6.16,0,0,0,.15-1.32V24.29a2.77,2.77,0,0,1,.15-.89,2.94,2.94,0,0,1,.45-.79,2.33,2.33,0,0,1,.72-.56,2.17,2.17,0,0,1,.94-.22,1.95,1.95,0,0,1,1.92,1.28,4.73,4.73,0,0,1,.34,1.32A14.73,14.73,0,0,1,188,26q0,.78,0,1.53Zm28.81,0a11.6,11.6,0,0,0-.77-4.28,9.77,9.77,0,0,0-5.46-5.62,11.21,11.21,0,0,0-4.25-.79,11.38,11.38,0,0,0-3.34.48,10.16,10.16,0,0,0-2.88,1.41,9.76,9.76,0,0,0-2.26,2.23,10.14,10.14,0,0,0-1.48,3,12.2,12.2,0,0,0-.52,3.61,11.77,11.77,0,0,0,.76,4.26,10,10,0,0,0,2.16,3.37,9.76,9.76,0,0,0,3.32,2.23,11.12,11.12,0,0,0,4.24.8,11.83,11.83,0,0,0,3.34-.49,9.9,9.9,0,0,0,2.88-1.41A9.72,9.72,0,0,0,214.83,34a10.37,10.37,0,0,0,1.47-3,11.69,11.69,0,0,0,.53-3.58Zm-5.34,0a8,8,0,0,1-.19,1.72,7.27,7.27,0,0,1-.58,1.68,5.65,5.65,0,0,1-1,1.44,4.4,4.4,0,0,1-1.45,1,5,5,0,0,1-3.91,0,4.49,4.49,0,0,1-1.46-1.07,5.91,5.91,0,0,1-1-1.49,7.32,7.32,0,0,1-.54-1.66,8,8,0,0,1,.2-4,6.39,6.39,0,0,1,1-2,5,5,0,0,1,1.62-1.34,4.66,4.66,0,0,1,5.57,1,5.93,5.93,0,0,1,1,1.5,7.43,7.43,0,0,1,.55,1.67,7.83,7.83,0,0,1,.17,1.62Zm28.76,8c0-.05,0-.28-.08-.71s-.12-1-.21-1.69-.19-1.51-.31-2.42-.24-1.85-.38-2.85l-.42-3c-.15-1-.29-2-.43-2.94s-.28-1.8-.41-2.57a2.18,2.18,0,0,0-.43-1,2.07,2.07,0,0,0-.73-.56,3.31,3.31,0,0,0-.87-.24,6.05,6.05,0,0,0-.83,0c-.15,0-.35,0-.58,0a5.31,5.31,0,0,0-.74.11,2.8,2.8,0,0,0-.75.3,1.82,1.82,0,0,0-.49.47,4,4,0,0,0-.34.59c-.09.2-.15.37-.2.49-.08.3-.18.63-.28,1s-.21.74-.33,1.13-.22.76-.32,1.14-.17.68-.27,1.1-.22.85-.35,1.3a12.1,12.1,0,0,1-.48,1.28,4.14,4.14,0,0,1-.64,1l-.13.14a1.4,1.4,0,0,1-.22.16.6.6,0,0,1-.27.07.73.73,0,0,1-.29-.07,2.29,2.29,0,0,1-.23-.16.9.9,0,0,1-.14-.14,4.45,4.45,0,0,1-.64-1A12.1,12.1,0,0,1,227,25c-.13-.45-.25-.89-.36-1.3s-.2-.79-.29-1.1-.19-.75-.3-1.14-.21-.76-.32-1.13l-.3-1c0-.12-.1-.29-.18-.49a4,4,0,0,0-.34-.59,1.82,1.82,0,0,0-.49-.47,2.68,2.68,0,0,0-.75-.3,5.18,5.18,0,0,0-.73-.11c-.24,0-.43,0-.59,0a6,6,0,0,0-.83,0,3.38,3.38,0,0,0-.88.24,1.95,1.95,0,0,0-1.15,1.58c-.13.77-.26,1.63-.41,2.57s-.28,1.92-.42,2.94-.29,2-.43,3-.26,1.95-.38,2.85-.21,1.71-.31,2.42-.15,1.27-.2,1.69-.08.66-.08.71a3.18,3.18,0,0,0,.16,1.13,1.29,1.29,0,0,0,.63.71,2.84,2.84,0,0,0,1.31.25,3,3,0,0,0,1.3-.24,1.63,1.63,0,0,0,.75-.72,4.58,4.58,0,0,0,.43-1.24c.1-.51.21-1.11.32-1.81.08-.51.15-1,.22-1.43s.14-.87.22-1.28a12.19,12.19,0,0,1,.35-1.24,1,1,0,0,1,.22-.35,1.13,1.13,0,0,1,.3-.24.54.54,0,0,1,.27-.09,1,1,0,0,1,.71.36,3.28,3.28,0,0,1,.54.94,10.91,10.91,0,0,1,.44,1.33c.14.5.27,1,.41,1.55s.29,1.08.47,1.6a8.94,8.94,0,0,0,.63,1.43,3.6,3.6,0,0,0,.81,1,1.58,1.58,0,0,0,1,.4,1.53,1.53,0,0,0,1-.4,3.57,3.57,0,0,0,.8-1,9.92,9.92,0,0,0,.62-1.43c.17-.52.34-1.06.48-1.6l.4-1.55a11,11,0,0,1,.43-1.33,3.28,3.28,0,0,1,.54-.94,1,1,0,0,1,.73-.36A.6.6,0,0,1,234,29a1.28,1.28,0,0,1,.29.24.94.94,0,0,1,.2.35,12.19,12.19,0,0,1,.35,1.24c.09.41.17.84.24,1.28s.15.92.22,1.43c.11.7.22,1.3.33,1.81a5,5,0,0,0,.42,1.24,1.61,1.61,0,0,0,.76.72,2.93,2.93,0,0,0,1.3.24,2.78,2.78,0,0,0,1.29-.25,1.31,1.31,0,0,0,.64-.71,3.16,3.16,0,0,0,.17-1.13Z"/><path class="cls-6" d="M27.07,15.57c.9,0,1.62.52,1.62,1.15s-.72,1.15-1.62,1.15-1.62-.51-1.62-1.15.72-1.15,1.62-1.15Z"/><path class="cls-6" d="M31.34,15.57c.9,0,1.62.52,1.62,1.15s-.72,1.15-1.62,1.15-1.62-.51-1.62-1.15.72-1.15,1.62-1.15Z"/><path class="cls-5" d="M178.54,2.88a1.93,1.93,0,0,0-.33-1.17,1.94,1.94,0,0,0-1-.65,5.59,5.59,0,0,0-1.66-.21h-.42a3.8,3.8,0,0,0-.46.05,1.8,1.8,0,0,0-.43.11.85.85,0,0,0-.32.23.58.58,0,0,0-.13.36V6.42a.6.6,0,0,0,.11.34.55.55,0,0,0,.27.19,1.15,1.15,0,0,0,.39,0,.82.82,0,0,0,.44-.09.58.58,0,0,0,.26-.31,1.64,1.64,0,0,0,.08-.55c0-.1,0-.2,0-.31a2.5,2.5,0,0,1,0-.29.87.87,0,0,1,.14-.27.8.8,0,0,1,.26-.21l.14,0a.4.4,0,0,1,.15,0h.14a2.69,2.69,0,0,0,1-.13,2,2,0,0,0,.73-.43,2,2,0,0,0,.47-.65,2.1,2.1,0,0,0,.16-.79Zm-1.72,0a.77.77,0,0,1-.1.42.69.69,0,0,1-.28.28,1.15,1.15,0,0,1-.45.1.65.65,0,0,1-.28-.08.57.57,0,0,1-.2-.18.76.76,0,0,1-.11-.26.86.86,0,0,1,0-.28.81.81,0,0,1,0-.25.8.8,0,0,1,.11-.25.64.64,0,0,1,.2-.2A.54.54,0,0,1,176,2.1a.88.88,0,0,1,.45.11.69.69,0,0,1,.28.28.73.73,0,0,1,.1.39Zm7.58,3.67a1.51,1.51,0,0,0-.05-.28c0-.12-.08-.27-.14-.44s-.11-.35-.18-.54-.14-.37-.2-.55-.14-.36-.2-.51-.1-.29-.14-.39l-.07-.19c0-.12-.09-.25-.15-.41s-.11-.32-.18-.49-.12-.35-.18-.51-.11-.32-.16-.45l-.12-.32a.85.85,0,0,0,0-.13.56.56,0,0,0-.21-.29.68.68,0,0,0-.31-.14,1.33,1.33,0,0,0-.34-.05h-.62l-.31,0a.7.7,0,0,0-.23.1,1.8,1.8,0,0,0-.19.21,1,1,0,0,0-.15.24c-.05.1-.09.21-.14.34s-.1.28-.16.47-.14.39-.23.64l-.44,1.29c-.06.15-.11.31-.17.48l-.18.51-.18.5c-.05.16-.1.3-.15.43s-.08.23-.1.31a.54.54,0,0,0,0,.15.46.46,0,0,0,.08.27.46.46,0,0,0,.18.13,1,1,0,0,0,.24,0h.23a1.69,1.69,0,0,0,.43,0,.79.79,0,0,0,.26-.13.75.75,0,0,0,.14-.17,2,2,0,0,0,.1-.21,1.13,1.13,0,0,1,.13-.2.8.8,0,0,1,.22-.17,1.13,1.13,0,0,1,.38-.13,3.32,3.32,0,0,1,.61,0A3,3,0,0,1,182,6a1.13,1.13,0,0,1,.38.13.8.8,0,0,1,.22.17.81.81,0,0,1,.14.2l.12.21a.64.64,0,0,0,.16.17.73.73,0,0,0,.25.13,1.66,1.66,0,0,0,.42,0h.21a1.06,1.06,0,0,0,.23,0,.46.46,0,0,0,.18-.13.46.46,0,0,0,.08-.27ZM182,4.11a.61.61,0,0,1-.1.33.46.46,0,0,1-.22.17.52.52,0,0,1-.27,0,.7.7,0,0,1-.29,0,.53.53,0,0,1-.23-.16.54.54,0,0,1-.1-.33l0-.11a1.58,1.58,0,0,1,.06-.23c0-.09.05-.18.08-.28s.08-.19.12-.27a1,1,0,0,1,.15-.21.26.26,0,0,1,.17-.09.28.28,0,0,1,.18.09,1.15,1.15,0,0,1,.15.2,1.69,1.69,0,0,1,.11.27,1.8,1.8,0,0,1,.09.28c0,.09,0,.16.06.22s0,.1,0,.11Zm6.83,1.23a1.49,1.49,0,0,0-.07-.51,1,1,0,0,0-.17-.35,2.76,2.76,0,0,0-.21-.25,2.61,2.61,0,0,1-.17-.2.37.37,0,0,1-.07-.23.54.54,0,0,1,.06-.27.74.74,0,0,1,.13-.21,1.16,1.16,0,0,0,.16-.21.87.87,0,0,0,.14-.29,1.42,1.42,0,0,0,.06-.44,1.35,1.35,0,0,0-.12-.59,1.42,1.42,0,0,0-.32-.45,2.36,2.36,0,0,0-.44-.32,3.07,3.07,0,0,0-.5-.2,3.49,3.49,0,0,0-.5-.11,2.29,2.29,0,0,0-.43,0l-.29,0-.37.05-.41.1A2,2,0,0,0,185,1a.82.82,0,0,0-.26.22.48.48,0,0,0-.1.31.49.49,0,0,0,0,.27.33.33,0,0,0,.18.19.75.75,0,0,0,.37.08,2.23,2.23,0,0,0,.34,0l.36-.07a1.7,1.7,0,0,1,.28,0l.24,0a.73.73,0,0,1,.28.1.53.53,0,0,1,.22.2.66.66,0,0,1,.09.36.71.71,0,0,1-.09.38.64.64,0,0,1-.25.21,1.17,1.17,0,0,1-.33.11l-.37.06-.34.08a.6.6,0,0,0-.24.16.4.4,0,0,0-.1.28.54.54,0,0,0,0,.21.51.51,0,0,0,.13.16.38.38,0,0,0,.22.06h.16l.28,0a1.91,1.91,0,0,1,.33.06,1.24,1.24,0,0,1,.33.15.72.72,0,0,1,.24.25.75.75,0,0,1,.09.39.58.58,0,0,1-.09.33.69.69,0,0,1-.24.24,1.35,1.35,0,0,1-.3.14,1.1,1.1,0,0,1-.29,0,2.11,2.11,0,0,1-.38,0l-.28-.09-.22-.11-.21-.09a.71.71,0,0,0-.26,0,.53.53,0,0,0-.28.07.7.7,0,0,0-.2.22.74.74,0,0,0-.07.31.52.52,0,0,0,.11.33.84.84,0,0,0,.27.26,1.91,1.91,0,0,0,.38.18,3.31,3.31,0,0,0,.42.12l.41.07.33,0h.19a4.23,4.23,0,0,0,.48,0,2.62,2.62,0,0,0,.54-.12,2.7,2.7,0,0,0,.53-.22,2.13,2.13,0,0,0,.45-.34,1.66,1.66,0,0,0,.32-.49,1.83,1.83,0,0,0,.11-.64Zm8.24.94V1.58a.81.81,0,0,0-.1-.37.83.83,0,0,0-.24-.22,1.31,1.31,0,0,0-.29-.11l-.27,0-.32,0a.9.9,0,0,0-.28.08.83.83,0,0,0-.25.18q-.12.14-.24.3l-.22.32c-.07.1-.13.2-.19.3l-.16.24-.09.16-.18.31-.24.38-.27.37a3.42,3.42,0,0,1-.27.27.42.42,0,0,1-.24.11.25.25,0,0,1-.18-.08.45.45,0,0,1-.11-.19,1.05,1.05,0,0,1-.06-.24,1.76,1.76,0,0,1,0-.19V1.51a.62.62,0,0,0-.1-.37.52.52,0,0,0-.27-.21.89.89,0,0,0-.38-.08.58.58,0,0,0-.2,0,.77.77,0,0,0-.25.11.8.8,0,0,0-.21.2.67.67,0,0,0-.08.33v4.8a.59.59,0,0,0,.08.34.55.55,0,0,0,.2.2,1,1,0,0,0,.28.11,1.32,1.32,0,0,0,.28,0h.29l.28,0a.59.59,0,0,0,.23-.14,8.5,8.5,0,0,0,.55-.71c.16-.24.32-.48.46-.72s.29-.48.44-.72l.08-.14.12-.18a1.56,1.56,0,0,1,.16-.2A.65.65,0,0,1,195,4a.7.7,0,0,1,.19-.06.36.36,0,0,1,.2.07.24.24,0,0,1,.1.15.58.58,0,0,1,0,.19,1.09,1.09,0,0,1,0,.18V6.29a.68.68,0,0,0,.19.52.77.77,0,0,0,.57.19.65.65,0,0,0,.28,0,.77.77,0,0,0,.25-.1.71.71,0,0,0,.18-.23.88.88,0,0,0,.07-.36Zm8.18.15V1.34a.36.36,0,0,0-.09-.24A.57.57,0,0,0,205,1a.72.72,0,0,0-.25-.07l-.22,0-.25,0A.62.62,0,0,0,204,1a.51.51,0,0,0-.21.2.54.54,0,0,0-.09.33v1a.61.61,0,0,1-.08.32.63.63,0,0,1-.22.21,1.48,1.48,0,0,1-.29.12l-.31,0h-.54l-.31-.06a1.48,1.48,0,0,1-.29-.12.6.6,0,0,1-.21-.21.5.5,0,0,1-.09-.31v-1a.61.61,0,0,0-.08-.32.51.51,0,0,0-.21-.2,1.14,1.14,0,0,0-.26-.09l-.26,0-.21,0a1.44,1.44,0,0,0-.25.08.51.51,0,0,0-.21.15.37.37,0,0,0-.09.25V6.51a.4.4,0,0,0,.08.26.43.43,0,0,0,.2.15.66.66,0,0,0,.25.07.91.91,0,0,0,.23,0,.69.69,0,0,0,.24,0,1.34,1.34,0,0,0,.26-.09.67.67,0,0,0,.22-.19.58.58,0,0,0,.09-.33V5.16a.54.54,0,0,1,.09-.33.66.66,0,0,1,.23-.21,1.34,1.34,0,0,1,.3-.12l.3,0h.49l.3,0a1.12,1.12,0,0,1,.31.1.6.6,0,0,1,.23.22.64.64,0,0,1,.09.36v1.2a.58.58,0,0,0,.09.33.64.64,0,0,0,.2.2l.27.09a.72.72,0,0,0,.25,0,.79.79,0,0,0,.22,0,.39.39,0,0,0,.2-.06.86.86,0,0,0,.22-.15.29.29,0,0,0,.06-.1s0-.09.05-.14a.52.52,0,0,0,0-.11Zm6.14.12a1.51,1.51,0,0,0,0-.28c0-.12-.08-.27-.14-.44s-.11-.35-.18-.54-.14-.37-.2-.55-.14-.36-.2-.51-.1-.29-.14-.39l-.07-.19c0-.12-.09-.25-.15-.41s-.11-.32-.18-.49-.12-.35-.18-.51-.11-.32-.16-.45l-.12-.32a.85.85,0,0,0,0-.13.56.56,0,0,0-.21-.29.68.68,0,0,0-.31-.14,1.33,1.33,0,0,0-.34-.05h-.62l-.31,0a.7.7,0,0,0-.23.1,1.8,1.8,0,0,0-.19.21,1,1,0,0,0-.15.24c0,.1-.09.21-.14.34s-.1.28-.16.47-.14.39-.23.64l-.44,1.29c-.06.15-.11.31-.17.48l-.18.51-.18.5c0,.16-.1.3-.15.43s-.08.23-.1.31a.54.54,0,0,0,0,.15.46.46,0,0,0,.08.27.46.46,0,0,0,.18.13,1,1,0,0,0,.24,0h.23a1.69,1.69,0,0,0,.43,0,.79.79,0,0,0,.26-.13.75.75,0,0,0,.14-.17,2,2,0,0,0,.1-.21l.13-.2a.8.8,0,0,1,.22-.17,1.13,1.13,0,0,1,.38-.13,3.32,3.32,0,0,1,.61,0A3,3,0,0,1,209,6a1.13,1.13,0,0,1,.38.13.8.8,0,0,1,.22.17.81.81,0,0,1,.14.2l.12.21a.64.64,0,0,0,.16.17.73.73,0,0,0,.25.13,1.66,1.66,0,0,0,.42,0h.21a1.06,1.06,0,0,0,.23,0,.46.46,0,0,0,.18-.13.46.46,0,0,0,.08-.27ZM209,4.11a.61.61,0,0,1-.1.33.46.46,0,0,1-.22.17.52.52,0,0,1-.27,0,.7.7,0,0,1-.29,0,.53.53,0,0,1-.23-.16.54.54,0,0,1-.1-.33l0-.11a1.58,1.58,0,0,1,.06-.23c0-.09,0-.18.08-.28l.12-.27a1,1,0,0,1,.15-.21.22.22,0,0,1,.35,0,1.15,1.15,0,0,1,.15.2,1.69,1.69,0,0,1,.11.27,1.8,1.8,0,0,1,.09.28c0,.09,0,.16.06.22s0,.1,0,.11Zm9.64,1.21a1.35,1.35,0,0,0-.09-.52,1.37,1.37,0,0,0-.2-.38l-.25-.28a2.25,2.25,0,0,1-.21-.24.5.5,0,0,1-.09-.24.59.59,0,0,1,0-.19l.12-.2a2.55,2.55,0,0,0,.14-.24,1.25,1.25,0,0,0,.12-.31,1.56,1.56,0,0,0,.05-.4,1.46,1.46,0,0,0-.1-.52,1.62,1.62,0,0,0-.27-.41,1.82,1.82,0,0,0-.38-.29,1.85,1.85,0,0,0-.44-.18,1.41,1.41,0,0,0-.45-.07H214.2a.73.73,0,0,0-.29.07.6.6,0,0,0-.23.22.75.75,0,0,0-.09.39V6.42a.68.68,0,0,0,0,.19,1.18,1.18,0,0,0,.11.19.8.8,0,0,0,.17.15.54.54,0,0,0,.22,0h2.81a1.81,1.81,0,0,0,.72-.14,1.71,1.71,0,0,0,.55-.39,1.73,1.73,0,0,0,.35-.54,1.62,1.62,0,0,0,.12-.61Zm-1.9-2.67a.51.51,0,0,1-.07.28.64.64,0,0,1-.16.2.94.94,0,0,1-.22.12.68.68,0,0,1-.23.07l-.18,0a.74.74,0,0,1-.38-.09.53.53,0,0,1-.25-.24.69.69,0,0,1-.09-.36.75.75,0,0,1,.09-.37.64.64,0,0,1,.25-.24.86.86,0,0,1,.38-.08.82.82,0,0,1,.26,0,1,1,0,0,1,.28.12.8.8,0,0,1,.23.22.54.54,0,0,1,.09.31ZM217,5.16a.62.62,0,0,1-.07.31.79.79,0,0,1-.18.22,1.19,1.19,0,0,1-.25.13l-.27.06a1,1,0,0,1-.23,0,.8.8,0,0,1-.6-.19.7.7,0,0,1-.2-.54.92.92,0,0,1,.11-.44.58.58,0,0,1,.29-.22,1.07,1.07,0,0,1,.41-.07,1.27,1.27,0,0,1,.32,0,1.21,1.21,0,0,1,.32.11.69.69,0,0,1,.25.23.53.53,0,0,1,.1.34Zm6.78,1a.86.86,0,0,0-.05-.27.62.62,0,0,0-.17-.22.46.46,0,0,0-.29-.09,1,1,0,0,0-.25,0,.7.7,0,0,0-.19.06l-.2.06a1,1,0,0,1-.26,0,1.61,1.61,0,0,1-.71-.15,1.46,1.46,0,0,1-.52-.39,1.78,1.78,0,0,1-.32-.57A2.2,2.2,0,0,1,220.7,4a3.17,3.17,0,0,1,.05-.53,3,3,0,0,1,.17-.5,1.62,1.62,0,0,1,.31-.43,1.37,1.37,0,0,1,.44-.3,1.6,1.6,0,0,1,.6-.11l.24,0,.18.06.16.06.18,0a1.06,1.06,0,0,0,.27,0,.35.35,0,0,0,.25-.09.39.39,0,0,0,.14-.21.84.84,0,0,0,.05-.29,1,1,0,0,0-.11-.45.93.93,0,0,0-.28-.31A1.38,1.38,0,0,0,223,.79a3.43,3.43,0,0,0-.44-.09l-.41,0A3.14,3.14,0,0,0,221,.85a2.91,2.91,0,0,0-.86.49,2.72,2.72,0,0,0-.63.72,3.39,3.39,0,0,0-.39.89,3.57,3.57,0,0,0-.14,1,3.66,3.66,0,0,0,.13,1,3.26,3.26,0,0,0,.36.88,2.72,2.72,0,0,0,.63.72A2.58,2.58,0,0,0,221,7a3.7,3.7,0,0,0,1.15.18h.28l.35,0a1.54,1.54,0,0,0,.35-.1,1,1,0,0,0,.32-.18.76.76,0,0,0,.22-.28.86.86,0,0,0,.09-.41Z"/><path class="cls-5" d="M227.67,6.34a.56.56,0,0,0-.15-.41.69.69,0,0,0-.46-.16c-.1,0-.2,0-.32,0l-.35,0a1.17,1.17,0,0,1-.33-.11.61.61,0,0,1-.24-.21.64.64,0,0,1-.1-.36.55.55,0,0,1,.1-.34.58.58,0,0,1,.25-.18,1.7,1.7,0,0,1,.34-.07l.38,0a1.21,1.21,0,0,0,.34-.07.47.47,0,0,0,.25-.16.49.49,0,0,0,.1-.32.58.58,0,0,0-.1-.35.45.45,0,0,0-.24-.16,1.28,1.28,0,0,0-.34-.06l-.37,0a1.14,1.14,0,0,1-.33,0,.54.54,0,0,1-.25-.16.58.58,0,0,1-.09-.35.28.28,0,0,1,0-.09l0-.09a.29.29,0,0,1,0-.08.63.63,0,0,1,.28-.21,1.18,1.18,0,0,1,.37-.09l.39,0a1.84,1.84,0,0,0,.35-.05.92.92,0,0,0,.26-.11.48.48,0,0,0,.14-.2,1.53,1.53,0,0,0,0-.35.72.72,0,0,0-.06-.29.57.57,0,0,0-.2-.21A1,1,0,0,0,227,.85H225a1.57,1.57,0,0,0-.25.05,1,1,0,0,0-.28.13.7.7,0,0,0-.23.25.91.91,0,0,0-.1.41V6.33a.66.66,0,0,0,.09.3.68.68,0,0,0,.24.2,1.33,1.33,0,0,0,.32.11,2.2,2.2,0,0,0,.37,0h1.24l.53,0a2.11,2.11,0,0,0,.41-.06.41.41,0,0,0,.25-.15.4.4,0,0,0,.09-.21,1.64,1.64,0,0,0,0-.22Zm4-4.82a.75.75,0,0,0-.09-.39.48.48,0,0,0-.27-.21,1.08,1.08,0,0,0-.43-.07h-1.77l-.35,0a1,1,0,0,0-.32.12.62.62,0,0,0-.23.25,1.11,1.11,0,0,0-.1.45V6.33a.8.8,0,0,0,.08.33.65.65,0,0,0,.19.21.87.87,0,0,0,.25.1l.25,0a.9.9,0,0,0,.28,0,.85.85,0,0,0,.26-.11.59.59,0,0,0,.19-.22.81.81,0,0,0,.08-.37V2.88a.69.69,0,0,1,.09-.38.65.65,0,0,1,.25-.22,1.69,1.69,0,0,1,.34-.09l.37,0h.33a.7.7,0,0,0,.24-.06,1,1,0,0,0,.22-.15.39.39,0,0,0,.11-.17.85.85,0,0,0,0-.25ZM238,6.8V6.68a.74.74,0,0,0,0-.21,1.62,1.62,0,0,0,0-.22.8.8,0,0,0,0-.18,1.37,1.37,0,0,0-.19-.34l-.24-.26a1.16,1.16,0,0,1-.2-.25.62.62,0,0,1-.08-.31V1.68a1,1,0,0,0-.1-.43.78.78,0,0,0-.28-.29,1,1,0,0,0-.44-.11h-2.83a.89.89,0,0,0-.33.08,1,1,0,0,0-.26.19,1,1,0,0,0-.17.27.8.8,0,0,0-.06.3V3.87a1.61,1.61,0,0,1,0,.39,2.26,2.26,0,0,1-.1.31,2.3,2.3,0,0,1-.09.25,1,1,0,0,1-.16.26,2.72,2.72,0,0,1-.24.24l-.26.22-.22.22a.76.76,0,0,0-.13.23,1.59,1.59,0,0,0,0,.26c0,.1,0,.2,0,.3a2.17,2.17,0,0,0,0,.26V7c0,.08,0,.17,0,.28a2.18,2.18,0,0,0,0,.35,1,1,0,0,0,.08.34.57.57,0,0,0,.2.26.68.68,0,0,0,.37.11.77.77,0,0,0,.27-.07.55.55,0,0,0,.19-.14.83.83,0,0,0,.13-.16l.06-.12a1.28,1.28,0,0,1,.07-.21,1.28,1.28,0,0,1,.11-.24.64.64,0,0,1,.16-.2.39.39,0,0,1,.23-.09l.26,0h1.69a2.48,2.48,0,0,1,.38,0l.38,0a1,1,0,0,1,.3.13.33.33,0,0,1,.15.2,3,3,0,0,0,.1.38.86.86,0,0,0,.14.27.66.66,0,0,0,.23.17.88.88,0,0,0,.35.06.64.64,0,0,0,.36-.11.75.75,0,0,0,.2-.29,1.43,1.43,0,0,0,.08-.37c0-.14,0-.27,0-.39s0-.24,0-.33Zm-2.34-2.87v.26c0,.11,0,.23,0,.36a2.57,2.57,0,0,1-.06.4,2.39,2.39,0,0,1-.15.37.72.72,0,0,1-.26.26.76.76,0,0,1-.41.11l-.27,0a.87.87,0,0,1-.24-.1.55.55,0,0,1-.17-.17.43.43,0,0,1-.07-.25.87.87,0,0,1,0-.28c0-.09.05-.2.08-.31a1.56,1.56,0,0,0,0-.4V3a.86.86,0,0,1,.05-.27.72.72,0,0,1,.14-.24.74.74,0,0,1,.52-.24.67.67,0,0,1,.39.11.62.62,0,0,1,.22.28,1.68,1.68,0,0,1,.11.4,3.59,3.59,0,0,1,0,.47v.46Zm8.11,2.62a1.8,1.8,0,0,0-.06-.28c0-.12-.07-.27-.13-.44s-.12-.35-.18-.54l-.21-.55c-.07-.19-.13-.36-.19-.51s-.11-.29-.14-.39l-.08-.19c0-.12-.08-.25-.14-.41l-.18-.49q-.09-.27-.18-.51c-.06-.17-.12-.32-.17-.45L242,1.47c0-.08,0-.12,0-.13a.7.7,0,0,0-.21-.29.73.73,0,0,0-.31-.14,1.33,1.33,0,0,0-.34-.05h-.62l-.31,0a.61.61,0,0,0-.23.1,1.94,1.94,0,0,0-.2.21,2.52,2.52,0,0,0-.15.24c0,.1-.09.21-.13.34s-.1.28-.16.47-.14.39-.23.64l-.45,1.29c-.05.15-.1.31-.17.48l-.18.51c-.06.17-.12.34-.17.5s-.11.3-.15.43-.08.23-.11.31a.9.9,0,0,0,0,.15.45.45,0,0,0,.07.27A.43.43,0,0,0,238,7a1,1,0,0,0,.24,0h.23a1.69,1.69,0,0,0,.43,0,.65.65,0,0,0,.25-.13.8.8,0,0,0,.15-.17l.1-.21a.76.76,0,0,1,.13-.2.67.67,0,0,1,.22-.17,1.05,1.05,0,0,1,.38-.13,3.32,3.32,0,0,1,.61,0,3.13,3.13,0,0,1,.58,0,1.06,1.06,0,0,1,.37.13.86.86,0,0,1,.23.17,2.43,2.43,0,0,1,.14.2l.12.21a.68.68,0,0,0,.41.3A1.66,1.66,0,0,0,243,7h.2a.86.86,0,0,0,.23,0,.43.43,0,0,0,.19-.13.54.54,0,0,0,.08-.27Zm-2.39-2.44a.54.54,0,0,1-.09.33.46.46,0,0,1-.22.17.52.52,0,0,1-.27,0,.7.7,0,0,1-.29,0,.56.56,0,0,1-.24-.16.54.54,0,0,1-.09-.33.34.34,0,0,1,0-.11c0-.06,0-.14.05-.23l.09-.28a1.69,1.69,0,0,1,.12-.27.71.71,0,0,1,.15-.21.21.21,0,0,1,.34,0,.62.62,0,0,1,.15.2,1.69,1.69,0,0,1,.12.27l.09.28c0,.09,0,.16.05.22a.34.34,0,0,1,0,.11Zm4,.25V1.58a.68.68,0,0,0-.11-.38A.72.72,0,0,0,245,1a.93.93,0,0,0-.37-.1.74.74,0,0,0-.23.05.76.76,0,0,0-.23.13.91.91,0,0,0-.18.21.57.57,0,0,0-.07.29V4.38a.44.44,0,0,0,.05.22.79.79,0,0,0,.14.23.62.62,0,0,0,.22.17.64.64,0,0,0,.28.07A.8.8,0,0,0,245,5a.75.75,0,0,0,.27-.26.66.66,0,0,0,.11-.36Zm0,2.07a.9.9,0,0,0,0-.28.72.72,0,0,0-.14-.24.7.7,0,0,0-.24-.17.75.75,0,0,0-.35-.07.69.69,0,0,0-.24,0,.65.65,0,0,0-.23.15.63.63,0,0,0-.16.23.88.88,0,0,0-.06.33.85.85,0,0,0,.08.35.71.71,0,0,0,.65.38.69.69,0,0,0,.37-.1.72.72,0,0,0,.26-.26.66.66,0,0,0,.1-.37Z"/></g></g></svg>